<?xml version="1.0" encoding="UTF-8"?>
<svg id="Layer_1" data-name="Layer 1" xmlns="http://www.w3.org/2000/svg" viewBox="0 0 640 448">
  <defs>
    <style>
      .cls-1 {
        fill: #fff;
      }
    </style>
  </defs>
  <path class="cls-1" d="m72,56C72,25.07,97.07,0,128,0s56,25.07,56,56-25.07,56-56,56-56-25.07-56-56Zm-8,157.7c-10,11.2-16,26.1-16,42.3s6,31.1,16,42.3v-84.6Zm144.4-49.3c-29.7,26.3-48.4,64.8-48.4,107.6,0,34.3,12,65.8,32,90.5v21.5c0,17.7-14.3,32-32,32h-64c-17.7,0-32-14.3-32-32v-26.8C26.2,339.2,0,300.7,0,256c0-61.9,50.1-112,112-112h32c24,0,46.2,7.5,64.4,20.3v.1Zm239.6,219.6v-21.5c20-24.7,32-56.2,32-90.5,0-42.8-18.7-81.3-48.4-107.7,18.2-12.8,40.4-20.3,64.4-20.3h32c61.9,0,112,50.1,112,112,0,44.7-26.2,83.2-64,101.2v26.8c0,17.7-14.3,32-32,32h-64c-17.7,0-32-14.3-32-32Zm8-328c0-30.93,25.07-56,56-56s56,25.07,56,56-25.07,56-56,56-56-25.07-56-56Zm120,157.7v84.7c10-11.3,16-26.1,16-42.3s-6-31.1-16-42.3v-.1ZM320,0c35.35,0,64,28.65,64,64s-28.65,64-64,64-64-28.65-64-64S284.65,0,320,0Zm-80,272c0,16.2,6,31,16,42.3v-84.6c-10,11.3-16,26.1-16,42.3Zm144-42.3v84.7c10-11.3,16-26.1,16-42.3s-6-31.1-16-42.3v-.1Zm64,42.3c0,44.7-26.2,83.2-64,101.2v42.8c0,17.7-14.3,32-32,32h-64c-17.7,0-32-14.3-32-32v-42.8c-37.8-18-64-56.5-64-101.2,0-61.9,50.1-112,112-112h32c61.9,0,112,50.1,112,112Z"/>
</svg>