<?xml version="1.0" encoding="UTF-8"?>
<svg id="Layer_1" data-name="Layer 1" xmlns="http://www.w3.org/2000/svg" viewBox="0 0 480 509.2">
  <defs>
    <style>
      .cls-1 {
        fill: #fff;
      }
    </style>
  </defs>
  <path class="cls-1" d="m240,0c4.6,0,9.2,1,13.4,2.9l188.3,79.9c22,9.3,38.4,31,38.3,57.2-.5,99.2-41.3,280.7-213.6,363.2-16.7,8-36.1,8-52.8,0C41.3,420.7.5,239.2,0,140c-.1-26.2,16.3-47.9,38.3-57.2L226.7,2.9c4.1-1.9,8.7-2.9,13.3-2.9Zm0,66.8v378c138-66.8,175.1-214.7,176-303.4l-176-74.6h0Z"/>
</svg>