<?xml version="1.0" encoding="UTF-8"?>
<svg id="Layer_1" data-name="Layer 1" xmlns="http://www.w3.org/2000/svg" viewBox="0 0 512.02 512.02">
  <defs>
    <style>
      .cls-1 {
        fill: #fff;
      }
    </style>
  </defs>
  <path class="cls-1" d="m164.9,24.62c-7.7-18.6-28-28.5-47.4-23.2L29.5,25.42C12.1,30.22,0,46.02,0,64.02c0,247.4,200.6,448,448,448,18,0,33.8-12.1,38.6-29.5l24-88c5.3-19.4-4.6-39.7-23.2-47.4l-96-40c-16.3-6.8-35.2-2.1-46.3,11.6l-40.4,49.3c-70.4-33.3-127.4-90.3-160.7-160.7l49.3-40.3c13.7-11.2,18.4-30,11.6-46.3l-40-96v-.1Z"/>
</svg>