<?xml version="1.0" encoding="UTF-8"?>
<svg id="Layer_1" data-name="Layer 1" xmlns="http://www.w3.org/2000/svg" viewBox="0 0 576.05 448">
  <defs>
    <style>
      .cls-1 {
        fill: #98a1a8;
      }
    </style>
  </defs>
  <path class="cls-1" d="m287.97,48c-65.2,0-118.8,29.6-159.9,67.7-38.5,35.8-65.1,78.3-78.7,108.3,13.6,30,40.2,72.5,78.6,108.3,41.2,38.1,94.8,67.7,160,67.7s118.8-29.6,159.9-67.7c38.5-35.8,65.1-78.3,78.7-108.3-13.6-30-40.2-72.5-78.6-108.3-41.2-38.1-94.8-67.7-160-67.7Zm-192.6,32.6C142.47,36.8,207.17,0,287.97,0s145.5,36.8,192.6,80.6c46.8,43.5,78.1,95.4,93,131.1,3.3,7.9,3.3,16.7,0,24.6-14.9,35.7-46.2,87.7-93,131.1-47.1,43.8-111.8,80.6-192.6,80.6s-145.5-36.8-192.6-80.6C48.57,324,17.27,272,2.47,236.3c-3.3-7.9-3.3-16.7,0-24.6,14.8-35.7,46.1-87.7,92.9-131.1Zm192.6,223.4c44.2,0,80-35.8,80-80s-35.8-80-80-80h-2c1.3,5.1,2,10.5,2,16,0,35.3-28.7,64-64,64-5.5,0-10.9-.7-16-2v2c0,44.2,35.8,80,80,80Zm0-208c70.69,0,128,57.31,128,128s-57.31,128-128,128-128-57.31-128-128,57.31-128,128-128Z"/>
</svg>